<mxfile host="app.diagrams.net" modified="2023-10-18T09:25:41.070Z" agent="Mozilla/5.0 (Windows NT 10.0; Win64; x64) AppleWebKit/537.36 (KHTML, like Gecko) Chrome/118.0.0.0 Safari/537.36" etag="LudJFQVPfqYYIsN5aifW" version="22.0.4" type="github">
  <diagram name="1 oldal" id="gjOM7e6wO8diRWeVtiza">
    <mxGraphModel dx="6885" dy="11337" grid="1" gridSize="10" guides="1" tooltips="1" connect="1" arrows="1" fold="1" page="1" pageScale="1" pageWidth="3300" pageHeight="4681" math="0" shadow="0">
      <root>
        <mxCell id="0" />
        <mxCell id="1" parent="0" />
        <mxCell id="eI0seqku75HwyaSV5OBJ-1" value="A főhősünk Ernesztó, megérkezett a hintód, leszálltál az autóbusz állomásnál, Győr pöcegödrébe (vidéki).&lt;br&gt;Éhes vagy, és nincs sok petákod (500Ft). Célod, hogy életben maradj és elzsalj a mekibe, ahol legyen elég jussod, hogy tudj magadnak vásárolni egy bejövős ajánlatot (1390Ft).&lt;br&gt;Próbálj meg sértetlen maradni, valamint ne kötözködj sokat a hobókkal!&lt;br&gt;&lt;br&gt;Kezdő statok: &lt;br&gt;Pénz: 500Ft&lt;br&gt;Éhség: 75 %&lt;br&gt;Energia: 100%" style="whiteSpace=wrap;html=1;" parent="1" vertex="1">
          <mxGeometry x="1380" y="-4650" width="610" height="170" as="geometry" />
        </mxCell>
        <mxCell id="eI0seqku75HwyaSV5OBJ-11" value="" style="edgeStyle=orthogonalEdgeStyle;rounded=0;orthogonalLoop=1;jettySize=auto;html=1;" parent="1" source="eI0seqku75HwyaSV5OBJ-3" target="eI0seqku75HwyaSV5OBJ-10" edge="1">
          <mxGeometry relative="1" as="geometry" />
        </mxCell>
        <mxCell id="eI0seqku75HwyaSV5OBJ-13" value="" style="edgeStyle=orthogonalEdgeStyle;rounded=0;orthogonalLoop=1;jettySize=auto;html=1;" parent="1" source="eI0seqku75HwyaSV5OBJ-3" target="eI0seqku75HwyaSV5OBJ-12" edge="1">
          <mxGeometry relative="1" as="geometry" />
        </mxCell>
        <mxCell id="eI0seqku75HwyaSV5OBJ-3" value="Az orrodat megcsavarja az égett benzinből áradó füst, amely a buszok kipufogójából ered, a füled pedig brazilmagyarok ordibálásától cseng.&lt;br&gt;Gondold meg mely útvonalon próbálsz szerencsét.&lt;br&gt;" style="rounded=0;whiteSpace=wrap;html=1;" parent="1" vertex="1">
          <mxGeometry x="1470" y="-4430" width="380" height="60" as="geometry" />
        </mxCell>
        <mxCell id="eI0seqku75HwyaSV5OBJ-15" value="" style="edgeStyle=orthogonalEdgeStyle;rounded=0;orthogonalLoop=1;jettySize=auto;html=1;" parent="1" source="eI0seqku75HwyaSV5OBJ-10" target="eI0seqku75HwyaSV5OBJ-14" edge="1">
          <mxGeometry relative="1" as="geometry" />
        </mxCell>
        <mxCell id="eaBGvAUoTCd1ScwMtzOl-91" value="" style="edgeStyle=orthogonalEdgeStyle;rounded=0;orthogonalLoop=1;jettySize=auto;html=1;" edge="1" parent="1" source="eI0seqku75HwyaSV5OBJ-10">
          <mxGeometry relative="1" as="geometry">
            <mxPoint x="542.5" y="-4210" as="targetPoint" />
          </mxGeometry>
        </mxCell>
        <mxCell id="eaBGvAUoTCd1ScwMtzOl-144" value="" style="edgeStyle=none;rounded=0;orthogonalLoop=1;jettySize=auto;html=1;entryX=0.414;entryY=0;entryDx=0;entryDy=0;entryPerimeter=0;" edge="1" parent="1" source="eI0seqku75HwyaSV5OBJ-10" target="A1ZuuhthlVVNKibYsWye-60">
          <mxGeometry relative="1" as="geometry">
            <mxPoint x="2190" y="-4350" as="targetPoint" />
            <Array as="points">
              <mxPoint x="2260" y="-4320" />
              <mxPoint x="2990" y="-4340" />
            </Array>
          </mxGeometry>
        </mxCell>
        <mxCell id="eI0seqku75HwyaSV5OBJ-10" value="aluljáró (Veszélyesebb)" style="whiteSpace=wrap;html=1;rounded=0;" parent="1" vertex="1">
          <mxGeometry x="1410" y="-4240" width="120" height="60" as="geometry" />
        </mxCell>
        <mxCell id="A1ZuuhthlVVNKibYsWye-77" value="" style="edgeStyle=orthogonalEdgeStyle;rounded=0;orthogonalLoop=1;jettySize=auto;html=1;" parent="1" source="eI0seqku75HwyaSV5OBJ-12" target="A1ZuuhthlVVNKibYsWye-76" edge="1">
          <mxGeometry relative="1" as="geometry" />
        </mxCell>
        <mxCell id="eI0seqku75HwyaSV5OBJ-12" value="Baross Gábor híd" style="whiteSpace=wrap;html=1;rounded=0;" parent="1" vertex="1">
          <mxGeometry x="710" y="-4640" width="120" height="70" as="geometry" />
        </mxCell>
        <mxCell id="eI0seqku75HwyaSV5OBJ-17" value="" style="edgeStyle=orthogonalEdgeStyle;rounded=0;orthogonalLoop=1;jettySize=auto;html=1;" parent="1" source="eI0seqku75HwyaSV5OBJ-14" target="eI0seqku75HwyaSV5OBJ-16" edge="1">
          <mxGeometry relative="1" as="geometry" />
        </mxCell>
        <mxCell id="eI0seqku75HwyaSV5OBJ-19" value="" style="edgeStyle=orthogonalEdgeStyle;rounded=0;orthogonalLoop=1;jettySize=auto;html=1;" parent="1" source="eI0seqku75HwyaSV5OBJ-14" target="eI0seqku75HwyaSV5OBJ-18" edge="1">
          <mxGeometry relative="1" as="geometry" />
        </mxCell>
        <mxCell id="eI0seqku75HwyaSV5OBJ-14" value="Az aluljáró előtt meglátod egyik ismerősödet, Csabikát, aki az búcsúban lőtt JBL-én hallgatja a muzsikát.&lt;br&gt;Mit teszel?" style="whiteSpace=wrap;html=1;rounded=0;" parent="1" vertex="1">
          <mxGeometry x="1220" y="-4100" width="340" height="70" as="geometry" />
        </mxCell>
        <mxCell id="eI0seqku75HwyaSV5OBJ-21" value="" style="edgeStyle=orthogonalEdgeStyle;rounded=0;orthogonalLoop=1;jettySize=auto;html=1;" parent="1" source="eI0seqku75HwyaSV5OBJ-16" target="eI0seqku75HwyaSV5OBJ-20" edge="1">
          <mxGeometry relative="1" as="geometry" />
        </mxCell>
        <mxCell id="eI0seqku75HwyaSV5OBJ-23" value="" style="edgeStyle=orthogonalEdgeStyle;rounded=0;orthogonalLoop=1;jettySize=auto;html=1;" parent="1" source="eI0seqku75HwyaSV5OBJ-16" target="eI0seqku75HwyaSV5OBJ-22" edge="1">
          <mxGeometry relative="1" as="geometry" />
        </mxCell>
        <mxCell id="eI0seqku75HwyaSV5OBJ-24" value="" style="edgeStyle=orthogonalEdgeStyle;rounded=0;orthogonalLoop=1;jettySize=auto;html=1;" parent="1" source="eI0seqku75HwyaSV5OBJ-16" target="eI0seqku75HwyaSV5OBJ-22" edge="1">
          <mxGeometry relative="1" as="geometry" />
        </mxCell>
        <mxCell id="eI0seqku75HwyaSV5OBJ-25" value="" style="edgeStyle=orthogonalEdgeStyle;rounded=0;orthogonalLoop=1;jettySize=auto;html=1;" parent="1" source="eI0seqku75HwyaSV5OBJ-16" target="eI0seqku75HwyaSV5OBJ-22" edge="1">
          <mxGeometry relative="1" as="geometry" />
        </mxCell>
        <mxCell id="eI0seqku75HwyaSV5OBJ-27" value="" style="edgeStyle=orthogonalEdgeStyle;rounded=0;orthogonalLoop=1;jettySize=auto;html=1;" parent="1" source="eI0seqku75HwyaSV5OBJ-16" target="eI0seqku75HwyaSV5OBJ-26" edge="1">
          <mxGeometry relative="1" as="geometry" />
        </mxCell>
        <mxCell id="eI0seqku75HwyaSV5OBJ-29" value="" style="edgeStyle=orthogonalEdgeStyle;rounded=0;orthogonalLoop=1;jettySize=auto;html=1;" parent="1" source="eI0seqku75HwyaSV5OBJ-16" target="eI0seqku75HwyaSV5OBJ-28" edge="1">
          <mxGeometry relative="1" as="geometry" />
        </mxCell>
        <mxCell id="eI0seqku75HwyaSV5OBJ-16" value="Odamész" style="rounded=0;whiteSpace=wrap;html=1;" parent="1" vertex="1">
          <mxGeometry x="1110" y="-3900" width="120" height="60" as="geometry" />
        </mxCell>
        <mxCell id="eI0seqku75HwyaSV5OBJ-31" value="" style="edgeStyle=orthogonalEdgeStyle;rounded=0;orthogonalLoop=1;jettySize=auto;html=1;exitX=1;exitY=0.75;exitDx=0;exitDy=0;" parent="1" source="eI0seqku75HwyaSV5OBJ-18" target="eI0seqku75HwyaSV5OBJ-30" edge="1">
          <mxGeometry relative="1" as="geometry" />
        </mxCell>
        <mxCell id="eI0seqku75HwyaSV5OBJ-18" value="Megpróbálod elkerülni." style="whiteSpace=wrap;html=1;rounded=0;" parent="1" vertex="1">
          <mxGeometry x="1520" y="-3900" width="120" height="60" as="geometry" />
        </mxCell>
        <mxCell id="eI0seqku75HwyaSV5OBJ-42" value="" style="edgeStyle=orthogonalEdgeStyle;rounded=0;orthogonalLoop=1;jettySize=auto;html=1;" parent="1" source="eI0seqku75HwyaSV5OBJ-20" target="eI0seqku75HwyaSV5OBJ-41" edge="1">
          <mxGeometry relative="1" as="geometry" />
        </mxCell>
        <mxCell id="eI0seqku75HwyaSV5OBJ-44" value="" style="edgeStyle=orthogonalEdgeStyle;rounded=0;orthogonalLoop=1;jettySize=auto;html=1;" parent="1" source="eI0seqku75HwyaSV5OBJ-20" target="eI0seqku75HwyaSV5OBJ-43" edge="1">
          <mxGeometry relative="1" as="geometry" />
        </mxCell>
        <mxCell id="eI0seqku75HwyaSV5OBJ-46" value="" style="edgeStyle=orthogonalEdgeStyle;rounded=0;orthogonalLoop=1;jettySize=auto;html=1;" parent="1" source="eI0seqku75HwyaSV5OBJ-20" target="eI0seqku75HwyaSV5OBJ-45" edge="1">
          <mxGeometry relative="1" as="geometry" />
        </mxCell>
        <mxCell id="eI0seqku75HwyaSV5OBJ-20" value="Lehúzod" style="whiteSpace=wrap;html=1;rounded=0;" parent="1" vertex="1">
          <mxGeometry x="910" y="-3730" width="120" height="60" as="geometry" />
        </mxCell>
        <mxCell id="eI0seqku75HwyaSV5OBJ-54" value="" style="edgeStyle=orthogonalEdgeStyle;rounded=0;orthogonalLoop=1;jettySize=auto;html=1;" parent="1" source="eI0seqku75HwyaSV5OBJ-22" target="eI0seqku75HwyaSV5OBJ-53" edge="1">
          <mxGeometry relative="1" as="geometry" />
        </mxCell>
        <mxCell id="eI0seqku75HwyaSV5OBJ-56" value="" style="edgeStyle=orthogonalEdgeStyle;rounded=0;orthogonalLoop=1;jettySize=auto;html=1;" parent="1" source="eI0seqku75HwyaSV5OBJ-22" target="eI0seqku75HwyaSV5OBJ-55" edge="1">
          <mxGeometry relative="1" as="geometry" />
        </mxCell>
        <mxCell id="eI0seqku75HwyaSV5OBJ-22" value="Kérsz tőle kaját" style="whiteSpace=wrap;html=1;rounded=0;" parent="1" vertex="1">
          <mxGeometry x="1040" y="-3730" width="120" height="60" as="geometry" />
        </mxCell>
        <mxCell id="eI0seqku75HwyaSV5OBJ-37" value="" style="edgeStyle=orthogonalEdgeStyle;rounded=0;orthogonalLoop=1;jettySize=auto;html=1;" parent="1" source="eI0seqku75HwyaSV5OBJ-26" target="eI0seqku75HwyaSV5OBJ-36" edge="1">
          <mxGeometry relative="1" as="geometry">
            <Array as="points">
              <mxPoint x="1230" y="-3620" />
              <mxPoint x="1230" y="-3620" />
            </Array>
          </mxGeometry>
        </mxCell>
        <mxCell id="eaBGvAUoTCd1ScwMtzOl-11" value="" style="edgeStyle=orthogonalEdgeStyle;rounded=0;orthogonalLoop=1;jettySize=auto;html=1;" edge="1" parent="1" source="eI0seqku75HwyaSV5OBJ-26" target="eaBGvAUoTCd1ScwMtzOl-10">
          <mxGeometry relative="1" as="geometry" />
        </mxCell>
        <mxCell id="eI0seqku75HwyaSV5OBJ-26" value="Beszólsz neki, hogy hallgasson valami normális nótát" style="rounded=0;whiteSpace=wrap;html=1;" parent="1" vertex="1">
          <mxGeometry x="1170" y="-3730" width="120" height="60" as="geometry" />
        </mxCell>
        <mxCell id="eI0seqku75HwyaSV5OBJ-39" value="" style="edgeStyle=orthogonalEdgeStyle;rounded=0;orthogonalLoop=1;jettySize=auto;html=1;" parent="1" source="eI0seqku75HwyaSV5OBJ-28" target="eI0seqku75HwyaSV5OBJ-38" edge="1">
          <mxGeometry relative="1" as="geometry" />
        </mxCell>
        <mxCell id="eI0seqku75HwyaSV5OBJ-28" value="Adsz neki egy százast(-100 Ft)" style="whiteSpace=wrap;html=1;rounded=0;" parent="1" vertex="1">
          <mxGeometry x="1410" y="-3740" width="120" height="60" as="geometry" />
        </mxCell>
        <mxCell id="eaBGvAUoTCd1ScwMtzOl-4" value="" style="edgeStyle=orthogonalEdgeStyle;rounded=0;orthogonalLoop=1;jettySize=auto;html=1;entryX=1.008;entryY=0.633;entryDx=0;entryDy=0;entryPerimeter=0;" edge="1" parent="1" source="eI0seqku75HwyaSV5OBJ-30" target="eI0seqku75HwyaSV5OBJ-64">
          <mxGeometry relative="1" as="geometry">
            <mxPoint x="1710" y="-3600" as="targetPoint" />
          </mxGeometry>
        </mxCell>
        <mxCell id="eI0seqku75HwyaSV5OBJ-30" value="Odaköszönt neked, de nem foglalkoztál vele. Később ezt lehet megbánod" style="whiteSpace=wrap;html=1;rounded=0;" parent="1" vertex="1">
          <mxGeometry x="1650" y="-3740" width="120" height="60" as="geometry" />
        </mxCell>
        <mxCell id="eaBGvAUoTCd1ScwMtzOl-16" value="" style="edgeStyle=orthogonalEdgeStyle;rounded=0;orthogonalLoop=1;jettySize=auto;html=1;" edge="1" parent="1" source="eI0seqku75HwyaSV5OBJ-36" target="eaBGvAUoTCd1ScwMtzOl-15">
          <mxGeometry relative="1" as="geometry" />
        </mxCell>
        <mxCell id="eI0seqku75HwyaSV5OBJ-36" value="Nagyot nevetett rajta" style="whiteSpace=wrap;html=1;rounded=0;" parent="1" vertex="1">
          <mxGeometry x="1140" y="-3600" width="120" height="60" as="geometry" />
        </mxCell>
        <mxCell id="eI0seqku75HwyaSV5OBJ-65" value="" style="edgeStyle=orthogonalEdgeStyle;rounded=0;orthogonalLoop=1;jettySize=auto;html=1;" parent="1" source="eI0seqku75HwyaSV5OBJ-38" target="eI0seqku75HwyaSV5OBJ-64" edge="1">
          <mxGeometry relative="1" as="geometry" />
        </mxCell>
        <mxCell id="eI0seqku75HwyaSV5OBJ-38" value="&quot;Köszönöm szép testvérem, ígérem ezt nem fogom elfelejteni&quot;" style="whiteSpace=wrap;html=1;rounded=0;" parent="1" vertex="1">
          <mxGeometry x="1440" y="-3610" width="120" height="60" as="geometry" />
        </mxCell>
        <mxCell id="eI0seqku75HwyaSV5OBJ-47" value="" style="edgeStyle=orthogonalEdgeStyle;rounded=0;orthogonalLoop=1;jettySize=auto;html=1;" parent="1" source="eI0seqku75HwyaSV5OBJ-40" target="eI0seqku75HwyaSV5OBJ-43" edge="1">
          <mxGeometry relative="1" as="geometry" />
        </mxCell>
        <mxCell id="eI0seqku75HwyaSV5OBJ-49" value="" style="edgeStyle=orthogonalEdgeStyle;rounded=0;orthogonalLoop=1;jettySize=auto;html=1;" parent="1" source="eI0seqku75HwyaSV5OBJ-40" edge="1">
          <mxGeometry relative="1" as="geometry">
            <mxPoint x="950" y="-3520" as="targetPoint" />
          </mxGeometry>
        </mxCell>
        <mxCell id="eI0seqku75HwyaSV5OBJ-51" value="" style="edgeStyle=orthogonalEdgeStyle;rounded=0;orthogonalLoop=1;jettySize=auto;html=1;" parent="1" source="eI0seqku75HwyaSV5OBJ-40" edge="1">
          <mxGeometry relative="1" as="geometry">
            <mxPoint x="710" y="-3520" as="targetPoint" />
          </mxGeometry>
        </mxCell>
        <mxCell id="eI0seqku75HwyaSV5OBJ-75" value="" style="edgeStyle=orthogonalEdgeStyle;rounded=0;orthogonalLoop=1;jettySize=auto;html=1;" parent="1" source="eI0seqku75HwyaSV5OBJ-40" edge="1">
          <mxGeometry relative="1" as="geometry">
            <mxPoint x="1000" y="-3050" as="targetPoint" />
            <Array as="points">
              <mxPoint x="941" y="-3420" />
              <mxPoint x="941" y="-3040" />
            </Array>
          </mxGeometry>
        </mxCell>
        <mxCell id="eI0seqku75HwyaSV5OBJ-40" value="&quot;Jáj mó, 150Ft-tal tudlak megáldani, de kotródj a szemem elől.&quot;" style="whiteSpace=wrap;html=1;rounded=0;" parent="1" vertex="1">
          <mxGeometry x="770" y="-3450" width="120" height="60" as="geometry" />
        </mxCell>
        <mxCell id="eI0seqku75HwyaSV5OBJ-41" value="&quot;Csabikám, halljak meg, aggyá mán egy öcsit.&quot;" style="whiteSpace=wrap;html=1;rounded=0;" parent="1" vertex="1">
          <mxGeometry x="650" y="-3580" width="120" height="60" as="geometry" />
        </mxCell>
        <mxCell id="eI0seqku75HwyaSV5OBJ-43" value="&quot;Buszjegyre nem tudsz adni egy 200ast?&quot;" style="whiteSpace=wrap;html=1;rounded=0;" parent="1" vertex="1">
          <mxGeometry x="770" y="-3580" width="120" height="60" as="geometry" />
        </mxCell>
        <mxCell id="eI0seqku75HwyaSV5OBJ-45" value="&quot;Most azonnal pengessél ki egy Rákóczit!&quot;" style="whiteSpace=wrap;html=1;rounded=0;" parent="1" vertex="1">
          <mxGeometry x="890" y="-3580" width="120" height="60" as="geometry" />
        </mxCell>
        <mxCell id="eI0seqku75HwyaSV5OBJ-57" value="" style="edgeStyle=orthogonalEdgeStyle;rounded=0;orthogonalLoop=1;jettySize=auto;html=1;" parent="1" source="eI0seqku75HwyaSV5OBJ-52" target="eI0seqku75HwyaSV5OBJ-55" edge="1">
          <mxGeometry relative="1" as="geometry" />
        </mxCell>
        <mxCell id="eI0seqku75HwyaSV5OBJ-61" value="" style="edgeStyle=orthogonalEdgeStyle;rounded=0;orthogonalLoop=1;jettySize=auto;html=1;" parent="1" source="eI0seqku75HwyaSV5OBJ-52" edge="1">
          <mxGeometry relative="1" as="geometry">
            <mxPoint x="1020" y="-3300" as="targetPoint" />
          </mxGeometry>
        </mxCell>
        <mxCell id="eI0seqku75HwyaSV5OBJ-69" value="" style="edgeStyle=orthogonalEdgeStyle;rounded=0;orthogonalLoop=1;jettySize=auto;html=1;" parent="1" source="eaBGvAUoTCd1ScwMtzOl-12" edge="1">
          <mxGeometry relative="1" as="geometry">
            <mxPoint x="1470" y="-3160" as="targetPoint" />
          </mxGeometry>
        </mxCell>
        <mxCell id="eI0seqku75HwyaSV5OBJ-52" value="Adott egy sült patkány combot, de lehúzott 200Ft-tal&lt;br&gt;(Éhség - 30%)" style="whiteSpace=wrap;html=1;rounded=0;" parent="1" vertex="1">
          <mxGeometry x="1040" y="-3200" width="120" height="60" as="geometry" />
        </mxCell>
        <mxCell id="eI0seqku75HwyaSV5OBJ-53" value="&quot;Jajj Csabusom, egy túrós batyuval dobjál mán meg &quot;" style="whiteSpace=wrap;html=1;rounded=0;" parent="1" vertex="1">
          <mxGeometry x="960" y="-3360" width="120" height="60" as="geometry" />
        </mxCell>
        <mxCell id="eI0seqku75HwyaSV5OBJ-55" value="&quot;Nincs ételed te fattyú??&quot;" style="whiteSpace=wrap;html=1;rounded=0;" parent="1" vertex="1">
          <mxGeometry x="1110" y="-3360" width="120" height="60" as="geometry" />
        </mxCell>
        <mxCell id="eI0seqku75HwyaSV5OBJ-64" value="Továbbmentél" style="whiteSpace=wrap;html=1;rounded=0;" parent="1" vertex="1">
          <mxGeometry x="1470" y="-3190" width="120" height="60" as="geometry" />
        </mxCell>
        <mxCell id="eI0seqku75HwyaSV5OBJ-73" value="" style="edgeStyle=orthogonalEdgeStyle;rounded=0;orthogonalLoop=1;jettySize=auto;html=1;" parent="1" edge="1">
          <mxGeometry relative="1" as="geometry">
            <mxPoint x="1000" y="-3040" as="sourcePoint" />
            <mxPoint x="1530" y="-3130" as="targetPoint" />
          </mxGeometry>
        </mxCell>
        <mxCell id="eI0seqku75HwyaSV5OBJ-82" value="" style="edgeStyle=orthogonalEdgeStyle;rounded=0;orthogonalLoop=1;jettySize=auto;html=1;" parent="1" target="eI0seqku75HwyaSV5OBJ-81" edge="1">
          <mxGeometry relative="1" as="geometry">
            <mxPoint x="130" y="-4220" as="sourcePoint" />
          </mxGeometry>
        </mxCell>
        <mxCell id="eI0seqku75HwyaSV5OBJ-84" value="" style="edgeStyle=orthogonalEdgeStyle;rounded=0;orthogonalLoop=1;jettySize=auto;html=1;" parent="1" target="eI0seqku75HwyaSV5OBJ-83" edge="1">
          <mxGeometry relative="1" as="geometry">
            <mxPoint x="130" y="-4220" as="sourcePoint" />
          </mxGeometry>
        </mxCell>
        <mxCell id="eI0seqku75HwyaSV5OBJ-86" value="" style="edgeStyle=orthogonalEdgeStyle;rounded=0;orthogonalLoop=1;jettySize=auto;html=1;" parent="1" source="eI0seqku75HwyaSV5OBJ-81" target="eI0seqku75HwyaSV5OBJ-85" edge="1">
          <mxGeometry relative="1" as="geometry" />
        </mxCell>
        <mxCell id="eI0seqku75HwyaSV5OBJ-81" value="Bemész mannáért" style="whiteSpace=wrap;html=1;rounded=0;" parent="1" vertex="1">
          <mxGeometry x="-40" y="-4070" width="120" height="60" as="geometry" />
        </mxCell>
        <mxCell id="A1ZuuhthlVVNKibYsWye-2" value="" style="edgeStyle=orthogonalEdgeStyle;rounded=0;orthogonalLoop=1;jettySize=auto;html=1;" parent="1" source="eI0seqku75HwyaSV5OBJ-83" target="eaBGvAUoTCd1ScwMtzOl-135" edge="1">
          <mxGeometry relative="1" as="geometry">
            <mxPoint x="490" y="-3150" as="targetPoint" />
            <Array as="points">
              <mxPoint x="380" y="-4040" />
            </Array>
          </mxGeometry>
        </mxCell>
        <mxCell id="eI0seqku75HwyaSV5OBJ-83" value="Maradsz inkább éhesen, mész tovább" style="whiteSpace=wrap;html=1;rounded=0;" parent="1" vertex="1">
          <mxGeometry x="240" y="-4070" width="120" height="60" as="geometry" />
        </mxCell>
        <mxCell id="eI0seqku75HwyaSV5OBJ-88" value="" style="edgeStyle=orthogonalEdgeStyle;rounded=0;orthogonalLoop=1;jettySize=auto;html=1;" parent="1" source="eI0seqku75HwyaSV5OBJ-85" target="eI0seqku75HwyaSV5OBJ-87" edge="1">
          <mxGeometry relative="1" as="geometry" />
        </mxCell>
        <mxCell id="eI0seqku75HwyaSV5OBJ-85" value="Bementél. Egy kedvesnek tűnő megereszkedett, középkorú nő áll a pultban." style="whiteSpace=wrap;html=1;rounded=0;" parent="1" vertex="1">
          <mxGeometry x="-40" y="-3870" width="120" height="100" as="geometry" />
        </mxCell>
        <mxCell id="eI0seqku75HwyaSV5OBJ-90" value="" style="edgeStyle=orthogonalEdgeStyle;rounded=0;orthogonalLoop=1;jettySize=auto;html=1;" parent="1" source="eI0seqku75HwyaSV5OBJ-87" target="eI0seqku75HwyaSV5OBJ-89" edge="1">
          <mxGeometry relative="1" as="geometry" />
        </mxCell>
        <mxCell id="eI0seqku75HwyaSV5OBJ-92" value="" style="edgeStyle=orthogonalEdgeStyle;rounded=0;orthogonalLoop=1;jettySize=auto;html=1;" parent="1" source="eI0seqku75HwyaSV5OBJ-87" target="eI0seqku75HwyaSV5OBJ-91" edge="1">
          <mxGeometry relative="1" as="geometry" />
        </mxCell>
        <mxCell id="eI0seqku75HwyaSV5OBJ-94" value="" style="edgeStyle=orthogonalEdgeStyle;rounded=0;orthogonalLoop=1;jettySize=auto;html=1;" parent="1" source="eI0seqku75HwyaSV5OBJ-87" target="eI0seqku75HwyaSV5OBJ-93" edge="1">
          <mxGeometry relative="1" as="geometry" />
        </mxCell>
        <mxCell id="eI0seqku75HwyaSV5OBJ-110" value="" style="edgeStyle=orthogonalEdgeStyle;rounded=0;orthogonalLoop=1;jettySize=auto;html=1;" parent="1" source="eI0seqku75HwyaSV5OBJ-87" target="eI0seqku75HwyaSV5OBJ-109" edge="1">
          <mxGeometry relative="1" as="geometry" />
        </mxCell>
        <mxCell id="eI0seqku75HwyaSV5OBJ-87" value="&quot;Mit szeretnél aranyom?&quot;" style="whiteSpace=wrap;html=1;rounded=0;" parent="1" vertex="1">
          <mxGeometry x="-40" y="-3670" width="120" height="60" as="geometry" />
        </mxCell>
        <mxCell id="eI0seqku75HwyaSV5OBJ-98" value="" style="edgeStyle=orthogonalEdgeStyle;rounded=0;orthogonalLoop=1;jettySize=auto;html=1;" parent="1" source="eI0seqku75HwyaSV5OBJ-89" target="eI0seqku75HwyaSV5OBJ-97" edge="1">
          <mxGeometry relative="1" as="geometry" />
        </mxCell>
        <mxCell id="eaBGvAUoTCd1ScwMtzOl-46" value="" style="edgeStyle=orthogonalEdgeStyle;rounded=0;orthogonalLoop=1;jettySize=auto;html=1;" edge="1" parent="1" source="eI0seqku75HwyaSV5OBJ-89" target="eaBGvAUoTCd1ScwMtzOl-45">
          <mxGeometry relative="1" as="geometry" />
        </mxCell>
        <mxCell id="eI0seqku75HwyaSV5OBJ-89" value="&quot;Ide a kakaóscsigát, te ánuszbogyó!&quot;" style="whiteSpace=wrap;html=1;rounded=0;" parent="1" vertex="1">
          <mxGeometry x="-290" y="-3560" width="120" height="60" as="geometry" />
        </mxCell>
        <mxCell id="eI0seqku75HwyaSV5OBJ-100" value="" style="edgeStyle=orthogonalEdgeStyle;rounded=0;orthogonalLoop=1;jettySize=auto;html=1;" parent="1" source="eI0seqku75HwyaSV5OBJ-91" target="eI0seqku75HwyaSV5OBJ-99" edge="1">
          <mxGeometry relative="1" as="geometry" />
        </mxCell>
        <mxCell id="eI0seqku75HwyaSV5OBJ-91" value="&quot;5dkg parizert meg két zsemlyét szeretnék!&quot;" style="whiteSpace=wrap;html=1;rounded=0;" parent="1" vertex="1">
          <mxGeometry x="-150" y="-3560" width="120" height="60" as="geometry" />
        </mxCell>
        <mxCell id="eI0seqku75HwyaSV5OBJ-102" value="" style="edgeStyle=orthogonalEdgeStyle;rounded=0;orthogonalLoop=1;jettySize=auto;html=1;" parent="1" source="eI0seqku75HwyaSV5OBJ-93" target="eI0seqku75HwyaSV5OBJ-101" edge="1">
          <mxGeometry relative="1" as="geometry" />
        </mxCell>
        <mxCell id="eI0seqku75HwyaSV5OBJ-93" value="&quot;Van valami ingyen?&quot;" style="whiteSpace=wrap;html=1;rounded=0;" parent="1" vertex="1">
          <mxGeometry x="50" y="-3560" width="120" height="60" as="geometry" />
        </mxCell>
        <mxCell id="A1ZuuhthlVVNKibYsWye-8" value="" style="edgeStyle=orthogonalEdgeStyle;rounded=0;orthogonalLoop=1;jettySize=auto;html=1;exitX=1;exitY=0.5;exitDx=0;exitDy=0;" parent="1" source="eI0seqku75HwyaSV5OBJ-99" edge="1">
          <mxGeometry relative="1" as="geometry">
            <mxPoint x="380" y="-3170" as="targetPoint" />
            <mxPoint x="-30" y="-3320" as="sourcePoint" />
          </mxGeometry>
        </mxCell>
        <mxCell id="eI0seqku75HwyaSV5OBJ-97" value="&quot;Takarodj a boltomból vagy hívom a fejeseket!&quot;" style="whiteSpace=wrap;html=1;rounded=0;" parent="1" vertex="1">
          <mxGeometry x="-290" y="-3350" width="120" height="60" as="geometry" />
        </mxCell>
        <mxCell id="eI0seqku75HwyaSV5OBJ-99" value="(-250ft)&lt;br&gt;(+40% éhség)" style="whiteSpace=wrap;html=1;rounded=0;" parent="1" vertex="1">
          <mxGeometry x="-150" y="-3350" width="120" height="60" as="geometry" />
        </mxCell>
        <mxCell id="eI0seqku75HwyaSV5OBJ-104" value="" style="edgeStyle=orthogonalEdgeStyle;rounded=0;orthogonalLoop=1;jettySize=auto;html=1;" parent="1" source="eI0seqku75HwyaSV5OBJ-101" edge="1">
          <mxGeometry relative="1" as="geometry">
            <mxPoint x="-80" y="-3500" as="targetPoint" />
          </mxGeometry>
        </mxCell>
        <mxCell id="eI0seqku75HwyaSV5OBJ-106" value="" style="edgeStyle=orthogonalEdgeStyle;rounded=0;orthogonalLoop=1;jettySize=auto;html=1;" parent="1" source="eI0seqku75HwyaSV5OBJ-101" edge="1">
          <mxGeometry relative="1" as="geometry">
            <mxPoint x="-210" y="-3500" as="targetPoint" />
          </mxGeometry>
        </mxCell>
        <mxCell id="eI0seqku75HwyaSV5OBJ-114" value="" style="edgeStyle=orthogonalEdgeStyle;rounded=0;orthogonalLoop=1;jettySize=auto;html=1;" parent="1" source="eI0seqku75HwyaSV5OBJ-101" edge="1">
          <mxGeometry relative="1" as="geometry">
            <mxPoint x="260" y="-3500" as="targetPoint" />
          </mxGeometry>
        </mxCell>
        <mxCell id="A1ZuuhthlVVNKibYsWye-4" value="" style="edgeStyle=orthogonalEdgeStyle;rounded=0;orthogonalLoop=1;jettySize=auto;html=1;" parent="1" source="eI0seqku75HwyaSV5OBJ-101" edge="1" target="eaBGvAUoTCd1ScwMtzOl-135">
          <mxGeometry relative="1" as="geometry">
            <mxPoint x="380" y="-3170" as="targetPoint" />
          </mxGeometry>
        </mxCell>
        <mxCell id="eI0seqku75HwyaSV5OBJ-101" value="&quot;Nincs&quot;" style="whiteSpace=wrap;html=1;rounded=0;" parent="1" vertex="1">
          <mxGeometry x="50" y="-3420" width="120" height="60" as="geometry" />
        </mxCell>
        <mxCell id="eI0seqku75HwyaSV5OBJ-109" value="Szó nélkül kimész" style="whiteSpace=wrap;html=1;rounded=0;" parent="1" vertex="1">
          <mxGeometry x="200" y="-3560" width="120" height="60" as="geometry" />
        </mxCell>
        <mxCell id="A1ZuuhthlVVNKibYsWye-45" value="" style="edgeStyle=orthogonalEdgeStyle;rounded=0;orthogonalLoop=1;jettySize=auto;html=1;" parent="1" source="A1ZuuhthlVVNKibYsWye-40" target="A1ZuuhthlVVNKibYsWye-44" edge="1">
          <mxGeometry relative="1" as="geometry" />
        </mxCell>
        <mxCell id="A1ZuuhthlVVNKibYsWye-47" value="" style="edgeStyle=orthogonalEdgeStyle;rounded=0;orthogonalLoop=1;jettySize=auto;html=1;" parent="1" source="A1ZuuhthlVVNKibYsWye-40" target="A1ZuuhthlVVNKibYsWye-46" edge="1">
          <mxGeometry relative="1" as="geometry" />
        </mxCell>
        <mxCell id="eaBGvAUoTCd1ScwMtzOl-142" value="" style="edgeStyle=none;rounded=0;orthogonalLoop=1;jettySize=auto;html=1;" edge="1" parent="1" source="A1ZuuhthlVVNKibYsWye-40" target="eI0seqku75HwyaSV5OBJ-10">
          <mxGeometry relative="1" as="geometry">
            <mxPoint x="1980" y="-4310" as="targetPoint" />
            <Array as="points">
              <mxPoint x="2180" y="-5150" />
              <mxPoint x="2070" y="-4390" />
            </Array>
          </mxGeometry>
        </mxCell>
        <mxCell id="A1ZuuhthlVVNKibYsWye-40" value="Találtál egy kétszázast, mire felnéztél, egy Adyvárosi lakótelepi szökevényt láttál meg.(+200Ft)" style="whiteSpace=wrap;html=1;rounded=0;" parent="1" vertex="1">
          <mxGeometry x="2490" y="-5150" width="300" height="60" as="geometry" />
        </mxCell>
        <mxCell id="A1ZuuhthlVVNKibYsWye-49" value="" style="edgeStyle=orthogonalEdgeStyle;rounded=0;orthogonalLoop=1;jettySize=auto;html=1;" parent="1" source="A1ZuuhthlVVNKibYsWye-44" target="A1ZuuhthlVVNKibYsWye-48" edge="1">
          <mxGeometry relative="1" as="geometry" />
        </mxCell>
        <mxCell id="A1ZuuhthlVVNKibYsWye-51" value="" style="edgeStyle=orthogonalEdgeStyle;rounded=0;orthogonalLoop=1;jettySize=auto;html=1;" parent="1" source="A1ZuuhthlVVNKibYsWye-44" target="A1ZuuhthlVVNKibYsWye-50" edge="1">
          <mxGeometry relative="1" as="geometry" />
        </mxCell>
        <mxCell id="A1ZuuhthlVVNKibYsWye-44" value="Megközelíted" style="whiteSpace=wrap;html=1;rounded=0;" parent="1" vertex="1">
          <mxGeometry x="2350" y="-4940" width="120" height="60" as="geometry" />
        </mxCell>
        <mxCell id="A1ZuuhthlVVNKibYsWye-63" value="" style="edgeStyle=orthogonalEdgeStyle;rounded=0;orthogonalLoop=1;jettySize=auto;html=1;entryX=0.662;entryY=-0.046;entryDx=0;entryDy=0;entryPerimeter=0;" parent="1" source="A1ZuuhthlVVNKibYsWye-46" edge="1" target="eaBGvAUoTCd1ScwMtzOl-138">
          <mxGeometry relative="1" as="geometry">
            <mxPoint x="2510" y="-4420" as="targetPoint" />
            <Array as="points">
              <mxPoint x="2761" y="-4910" />
              <mxPoint x="2761" y="-4430" />
              <mxPoint x="2449" y="-4430" />
            </Array>
          </mxGeometry>
        </mxCell>
        <mxCell id="A1ZuuhthlVVNKibYsWye-46" value="Figyelmen kívül hagyod" style="whiteSpace=wrap;html=1;rounded=0;" parent="1" vertex="1">
          <mxGeometry x="2820" y="-4940" width="120" height="60" as="geometry" />
        </mxCell>
        <mxCell id="A1ZuuhthlVVNKibYsWye-57" value="" style="edgeStyle=orthogonalEdgeStyle;rounded=0;orthogonalLoop=1;jettySize=auto;html=1;" parent="1" source="A1ZuuhthlVVNKibYsWye-48" target="A1ZuuhthlVVNKibYsWye-56" edge="1">
          <mxGeometry relative="1" as="geometry" />
        </mxCell>
        <mxCell id="A1ZuuhthlVVNKibYsWye-48" value="&quot;Aggyál mán egy kis pénzt, ne legyél irigy&quot;" style="whiteSpace=wrap;html=1;rounded=0;" parent="1" vertex="1">
          <mxGeometry x="2220" y="-4850" width="120" height="60" as="geometry" />
        </mxCell>
        <mxCell id="A1ZuuhthlVVNKibYsWye-53" value="" style="edgeStyle=orthogonalEdgeStyle;rounded=0;orthogonalLoop=1;jettySize=auto;html=1;" parent="1" source="A1ZuuhthlVVNKibYsWye-50" target="A1ZuuhthlVVNKibYsWye-52" edge="1">
          <mxGeometry relative="1" as="geometry" />
        </mxCell>
        <mxCell id="A1ZuuhthlVVNKibYsWye-50" value="Leosztasz neki egy parasztlengőt, mert nem tetszik a kiállása" style="whiteSpace=wrap;html=1;rounded=0;" parent="1" vertex="1">
          <mxGeometry x="2490" y="-4850" width="120" height="60" as="geometry" />
        </mxCell>
        <mxCell id="A1ZuuhthlVVNKibYsWye-55" value="" style="edgeStyle=orthogonalEdgeStyle;rounded=0;orthogonalLoop=1;jettySize=auto;html=1;" parent="1" source="A1ZuuhthlVVNKibYsWye-52" target="A1ZuuhthlVVNKibYsWye-54" edge="1">
          <mxGeometry relative="1" as="geometry" />
        </mxCell>
        <mxCell id="A1ZuuhthlVVNKibYsWye-52" value="Ezt meglátták a városrendészek, és bevittek" style="whiteSpace=wrap;html=1;rounded=0;" parent="1" vertex="1">
          <mxGeometry x="2490" y="-4740" width="120" height="60" as="geometry" />
        </mxCell>
        <mxCell id="A1ZuuhthlVVNKibYsWye-54" value="Vesztettél!" style="whiteSpace=wrap;html=1;rounded=0;" parent="1" vertex="1">
          <mxGeometry x="2490" y="-4600" width="120" height="60" as="geometry" />
        </mxCell>
        <mxCell id="A1ZuuhthlVVNKibYsWye-59" value="" style="edgeStyle=orthogonalEdgeStyle;rounded=0;orthogonalLoop=1;jettySize=auto;html=1;" parent="1" source="A1ZuuhthlVVNKibYsWye-56" target="A1ZuuhthlVVNKibYsWye-58" edge="1">
          <mxGeometry relative="1" as="geometry" />
        </mxCell>
        <mxCell id="A1ZuuhthlVVNKibYsWye-56" value="&quot;Látom nem vagy egy kobold ezért megszánlak.(+150Ft)&quot;" style="whiteSpace=wrap;html=1;rounded=0;" parent="1" vertex="1">
          <mxGeometry x="2220" y="-4600" width="120" height="60" as="geometry" />
        </mxCell>
        <mxCell id="eaBGvAUoTCd1ScwMtzOl-139" value="" style="edgeStyle=none;rounded=0;orthogonalLoop=1;jettySize=auto;html=1;entryX=0;entryY=0.75;entryDx=0;entryDy=0;" edge="1" parent="1" source="A1ZuuhthlVVNKibYsWye-58" target="eaBGvAUoTCd1ScwMtzOl-138">
          <mxGeometry relative="1" as="geometry" />
        </mxCell>
        <mxCell id="A1ZuuhthlVVNKibYsWye-58" value="Megköszönöd majd továbbmész" style="whiteSpace=wrap;html=1;rounded=0;" parent="1" vertex="1">
          <mxGeometry x="2220" y="-4460" width="120" height="60" as="geometry" />
        </mxCell>
        <mxCell id="A1ZuuhthlVVNKibYsWye-65" value="" style="edgeStyle=orthogonalEdgeStyle;rounded=0;orthogonalLoop=1;jettySize=auto;html=1;" parent="1" source="A1ZuuhthlVVNKibYsWye-60" target="A1ZuuhthlVVNKibYsWye-64" edge="1">
          <mxGeometry relative="1" as="geometry" />
        </mxCell>
        <mxCell id="A1ZuuhthlVVNKibYsWye-69" value="" style="edgeStyle=orthogonalEdgeStyle;rounded=0;orthogonalLoop=1;jettySize=auto;html=1;" parent="1" source="A1ZuuhthlVVNKibYsWye-60" target="A1ZuuhthlVVNKibYsWye-68" edge="1">
          <mxGeometry relative="1" as="geometry" />
        </mxCell>
        <mxCell id="A1ZuuhthlVVNKibYsWye-73" value="" style="edgeStyle=orthogonalEdgeStyle;rounded=0;orthogonalLoop=1;jettySize=auto;html=1;" parent="1" source="A1ZuuhthlVVNKibYsWye-60" target="A1ZuuhthlVVNKibYsWye-72" edge="1">
          <mxGeometry relative="1" as="geometry" />
        </mxCell>
        <mxCell id="A1ZuuhthlVVNKibYsWye-60" value="Továbbmentél majd mekinél kötöttél ki, az erős csontozatú emberek törzshelyére." style="whiteSpace=wrap;html=1;rounded=0;" parent="1" vertex="1">
          <mxGeometry x="2980" y="-4320" width="290" height="60" as="geometry" />
        </mxCell>
        <mxCell id="A1ZuuhthlVVNKibYsWye-67" value="" style="edgeStyle=orthogonalEdgeStyle;rounded=0;orthogonalLoop=1;jettySize=auto;html=1;" parent="1" source="A1ZuuhthlVVNKibYsWye-64" target="A1ZuuhthlVVNKibYsWye-66" edge="1">
          <mxGeometry relative="1" as="geometry" />
        </mxCell>
        <mxCell id="A1ZuuhthlVVNKibYsWye-64" value="Ha - nincsen meg az 1400Ft, és annó Csabikának adtál pénzt." style="whiteSpace=wrap;html=1;rounded=0;" parent="1" vertex="1">
          <mxGeometry x="2950" y="-4180" width="350" height="60" as="geometry" />
        </mxCell>
        <mxCell id="A1ZuuhthlVVNKibYsWye-66" value="Az étterem előtt meglátod Csabikát aki ígéretét betartva kiegészített téged.(100%-os kaja)" style="whiteSpace=wrap;html=1;rounded=0;" parent="1" vertex="1">
          <mxGeometry x="3050" y="-4040" width="150" height="60" as="geometry" />
        </mxCell>
        <mxCell id="A1ZuuhthlVVNKibYsWye-71" value="" style="edgeStyle=orthogonalEdgeStyle;rounded=0;orthogonalLoop=1;jettySize=auto;html=1;" parent="1" source="A1ZuuhthlVVNKibYsWye-68" target="A1ZuuhthlVVNKibYsWye-70" edge="1">
          <mxGeometry relative="1" as="geometry" />
        </mxCell>
        <mxCell id="A1ZuuhthlVVNKibYsWye-68" value="Ha - nincs meg az 1400Ft" style="whiteSpace=wrap;html=1;rounded=0;" parent="1" vertex="1">
          <mxGeometry x="3440" y="-4180" width="120" height="60" as="geometry" />
        </mxCell>
        <mxCell id="A1ZuuhthlVVNKibYsWye-70" value="Elértél a mekihez biztonságban, de nem volt elég pénzed -&amp;gt; Tovább állsz" style="whiteSpace=wrap;html=1;rounded=0;" parent="1" vertex="1">
          <mxGeometry x="3410" y="-4040" width="210" height="60" as="geometry" />
        </mxCell>
        <mxCell id="A1ZuuhthlVVNKibYsWye-75" value="" style="edgeStyle=orthogonalEdgeStyle;rounded=0;orthogonalLoop=1;jettySize=auto;html=1;" parent="1" source="A1ZuuhthlVVNKibYsWye-72" target="A1ZuuhthlVVNKibYsWye-74" edge="1">
          <mxGeometry relative="1" as="geometry" />
        </mxCell>
        <mxCell id="A1ZuuhthlVVNKibYsWye-72" value="Ha - van 1400Ft" style="whiteSpace=wrap;html=1;rounded=0;" parent="1" vertex="1">
          <mxGeometry x="2590" y="-4170" width="230" height="60" as="geometry" />
        </mxCell>
        <mxCell id="A1ZuuhthlVVNKibYsWye-74" value="Bementél a mekibe és kikérted a kajádat. (100%-os kaja)" style="whiteSpace=wrap;html=1;rounded=0;" parent="1" vertex="1">
          <mxGeometry x="2580" y="-4040" width="250" height="60" as="geometry" />
        </mxCell>
        <mxCell id="eaBGvAUoTCd1ScwMtzOl-134" value="" style="edgeStyle=none;rounded=0;orthogonalLoop=1;jettySize=auto;html=1;entryX=0;entryY=0.25;entryDx=0;entryDy=0;" edge="1" parent="1" source="A1ZuuhthlVVNKibYsWye-76" target="eI0seqku75HwyaSV5OBJ-10">
          <mxGeometry relative="1" as="geometry">
            <mxPoint x="1140" y="-4470" as="targetPoint" />
          </mxGeometry>
        </mxCell>
        <mxCell id="A1ZuuhthlVVNKibYsWye-76" value="Elindultál a híd irányába, de azt látod, hogy a híd felújítás miatt le van zárva, ezért kénytelen voltál aluljárónak menni" style="whiteSpace=wrap;html=1;rounded=0;" parent="1" vertex="1">
          <mxGeometry x="930" y="-4640" width="420" height="60" as="geometry" />
        </mxCell>
        <mxCell id="eaBGvAUoTCd1ScwMtzOl-13" value="" style="edgeStyle=orthogonalEdgeStyle;rounded=0;orthogonalLoop=1;jettySize=auto;html=1;" edge="1" parent="1" source="eaBGvAUoTCd1ScwMtzOl-10" target="eaBGvAUoTCd1ScwMtzOl-12">
          <mxGeometry relative="1" as="geometry" />
        </mxCell>
        <mxCell id="eaBGvAUoTCd1ScwMtzOl-10" value="Pofán vág (-15% energia)" style="whiteSpace=wrap;html=1;rounded=0;" vertex="1" parent="1">
          <mxGeometry x="1290" y="-3600" width="120" height="60" as="geometry" />
        </mxCell>
        <mxCell id="eaBGvAUoTCd1ScwMtzOl-14" value="" style="edgeStyle=orthogonalEdgeStyle;rounded=0;orthogonalLoop=1;jettySize=auto;html=1;" edge="1" parent="1" source="eaBGvAUoTCd1ScwMtzOl-15" target="eaBGvAUoTCd1ScwMtzOl-12">
          <mxGeometry relative="1" as="geometry">
            <mxPoint x="1470" y="-3160" as="targetPoint" />
            <mxPoint x="1160" y="-3170" as="sourcePoint" />
          </mxGeometry>
        </mxCell>
        <mxCell id="eaBGvAUoTCd1ScwMtzOl-12" value="" style="shape=waypoint;sketch=0;size=6;pointerEvents=1;points=[];fillColor=default;resizable=0;rotatable=0;perimeter=centerPerimeter;snapToPoint=1;rounded=0;" vertex="1" parent="1">
          <mxGeometry x="1390" y="-3170" width="20" height="20" as="geometry" />
        </mxCell>
        <mxCell id="eaBGvAUoTCd1ScwMtzOl-17" value="" style="edgeStyle=orthogonalEdgeStyle;rounded=0;orthogonalLoop=1;jettySize=auto;html=1;" edge="1" parent="1" source="eI0seqku75HwyaSV5OBJ-52" target="eaBGvAUoTCd1ScwMtzOl-15">
          <mxGeometry relative="1" as="geometry">
            <mxPoint x="1400" y="-3160" as="targetPoint" />
            <mxPoint x="1160" y="-3170" as="sourcePoint" />
          </mxGeometry>
        </mxCell>
        <mxCell id="eaBGvAUoTCd1ScwMtzOl-15" value="" style="shape=waypoint;sketch=0;size=6;pointerEvents=1;points=[];fillColor=default;resizable=0;rotatable=0;perimeter=centerPerimeter;snapToPoint=1;rounded=0;" vertex="1" parent="1">
          <mxGeometry x="1270" y="-3170" width="20" height="20" as="geometry" />
        </mxCell>
        <mxCell id="eaBGvAUoTCd1ScwMtzOl-48" value="" style="edgeStyle=orthogonalEdgeStyle;rounded=0;orthogonalLoop=1;jettySize=auto;html=1;" edge="1" parent="1" source="eaBGvAUoTCd1ScwMtzOl-45" target="eaBGvAUoTCd1ScwMtzOl-47">
          <mxGeometry relative="1" as="geometry" />
        </mxCell>
        <mxCell id="eaBGvAUoTCd1ScwMtzOl-49" value="" style="edgeStyle=orthogonalEdgeStyle;rounded=0;orthogonalLoop=1;jettySize=auto;html=1;" edge="1" parent="1" source="eaBGvAUoTCd1ScwMtzOl-45" target="eaBGvAUoTCd1ScwMtzOl-47">
          <mxGeometry relative="1" as="geometry" />
        </mxCell>
        <mxCell id="eaBGvAUoTCd1ScwMtzOl-50" value="" style="edgeStyle=orthogonalEdgeStyle;rounded=0;orthogonalLoop=1;jettySize=auto;html=1;" edge="1" parent="1" source="eaBGvAUoTCd1ScwMtzOl-45" target="eaBGvAUoTCd1ScwMtzOl-47">
          <mxGeometry relative="1" as="geometry" />
        </mxCell>
        <mxCell id="eaBGvAUoTCd1ScwMtzOl-51" value="" style="edgeStyle=orthogonalEdgeStyle;rounded=0;orthogonalLoop=1;jettySize=auto;html=1;" edge="1" parent="1" source="eaBGvAUoTCd1ScwMtzOl-45" target="eaBGvAUoTCd1ScwMtzOl-47">
          <mxGeometry relative="1" as="geometry" />
        </mxCell>
        <mxCell id="eaBGvAUoTCd1ScwMtzOl-54" value="" style="edgeStyle=orthogonalEdgeStyle;rounded=0;orthogonalLoop=1;jettySize=auto;html=1;" edge="1" parent="1" source="eaBGvAUoTCd1ScwMtzOl-45" target="eaBGvAUoTCd1ScwMtzOl-53">
          <mxGeometry relative="1" as="geometry" />
        </mxCell>
        <mxCell id="eaBGvAUoTCd1ScwMtzOl-45" value="&quot;Tetszik a domináns hozzállásod, akar velem hancúrozni a pulton?&quot;" style="whiteSpace=wrap;html=1;rounded=0;" vertex="1" parent="1">
          <mxGeometry x="-490" y="-3560" width="120" height="60" as="geometry" />
        </mxCell>
        <mxCell id="eaBGvAUoTCd1ScwMtzOl-58" value="" style="edgeStyle=orthogonalEdgeStyle;rounded=0;orthogonalLoop=1;jettySize=auto;html=1;" edge="1" parent="1" source="eaBGvAUoTCd1ScwMtzOl-47" target="eaBGvAUoTCd1ScwMtzOl-57">
          <mxGeometry relative="1" as="geometry" />
        </mxCell>
        <mxCell id="eaBGvAUoTCd1ScwMtzOl-47" value="Igen" style="whiteSpace=wrap;html=1;rounded=0;" vertex="1" parent="1">
          <mxGeometry x="-510" y="-3460" width="120" height="60" as="geometry" />
        </mxCell>
        <mxCell id="eaBGvAUoTCd1ScwMtzOl-56" value="" style="edgeStyle=orthogonalEdgeStyle;rounded=0;orthogonalLoop=1;jettySize=auto;html=1;entryX=0;entryY=0.5;entryDx=0;entryDy=0;" edge="1" parent="1" source="eaBGvAUoTCd1ScwMtzOl-53" target="eaBGvAUoTCd1ScwMtzOl-135">
          <mxGeometry relative="1" as="geometry">
            <mxPoint x="200" y="-3080" as="targetPoint" />
            <Array as="points">
              <mxPoint x="-610" y="-3205" />
              <mxPoint x="90" y="-3205" />
              <mxPoint x="90" y="-3170" />
              <mxPoint x="150" y="-3170" />
              <mxPoint x="150" y="-3148" />
              <mxPoint x="320" y="-3148" />
            </Array>
          </mxGeometry>
        </mxCell>
        <mxCell id="eaBGvAUoTCd1ScwMtzOl-53" value="Nem, és ráhívod a rendőrséget. Később kiderül egy hírhedt pedofil volt, ezért&amp;nbsp; a rendőrség 3000 Ft-ot ad neked.(+3000 FT)" style="whiteSpace=wrap;html=1;rounded=0;" vertex="1" parent="1">
          <mxGeometry x="-670" y="-3420" width="120" height="100" as="geometry" />
        </mxCell>
        <mxCell id="eaBGvAUoTCd1ScwMtzOl-57" value="Lefekszel a pultos nővel, és kapsz tőle egy energiaitalt.(+20% energia)" style="whiteSpace=wrap;html=1;rounded=0;" vertex="1" parent="1">
          <mxGeometry x="-510" y="-3320" width="120" height="60" as="geometry" />
        </mxCell>
        <mxCell id="eaBGvAUoTCd1ScwMtzOl-75" value="" style="edgeStyle=orthogonalEdgeStyle;rounded=0;orthogonalLoop=1;jettySize=auto;html=1;" edge="1" parent="1" source="eaBGvAUoTCd1ScwMtzOl-76" target="eaBGvAUoTCd1ScwMtzOl-83">
          <mxGeometry relative="1" as="geometry" />
        </mxCell>
        <mxCell id="eaBGvAUoTCd1ScwMtzOl-76" value="Megpillantasz egy százast a földön.&lt;br&gt;Felveszed?" style="whiteSpace=wrap;html=1;rounded=0;" vertex="1" parent="1">
          <mxGeometry x="902.5" y="-4190" width="120" height="60" as="geometry" />
        </mxCell>
        <mxCell id="eaBGvAUoTCd1ScwMtzOl-100" value="" style="edgeStyle=none;rounded=0;orthogonalLoop=1;jettySize=auto;html=1;" edge="1" parent="1" source="eaBGvAUoTCd1ScwMtzOl-77">
          <mxGeometry relative="1" as="geometry">
            <mxPoint x="140" y="-4220" as="targetPoint" />
          </mxGeometry>
        </mxCell>
        <mxCell id="eaBGvAUoTCd1ScwMtzOl-137" value="" style="edgeStyle=none;rounded=0;orthogonalLoop=1;jettySize=auto;html=1;" edge="1" parent="1" source="eaBGvAUoTCd1ScwMtzOl-77" target="eI0seqku75HwyaSV5OBJ-10">
          <mxGeometry relative="1" as="geometry">
            <mxPoint x="510" y="-4320" as="targetPoint" />
          </mxGeometry>
        </mxCell>
        <mxCell id="eaBGvAUoTCd1ScwMtzOl-77" value="Haladsz a kijárat felé, meglátod a kis abct" style="whiteSpace=wrap;html=1;rounded=0;" vertex="1" parent="1">
          <mxGeometry x="-20" y="-4350" width="300" height="60" as="geometry" />
        </mxCell>
        <mxCell id="eaBGvAUoTCd1ScwMtzOl-78" value="" style="edgeStyle=orthogonalEdgeStyle;rounded=0;orthogonalLoop=1;jettySize=auto;html=1;" edge="1" parent="1" source="eaBGvAUoTCd1ScwMtzOl-80">
          <mxGeometry relative="1" as="geometry">
            <mxPoint x="1022.5" y="-4150" as="targetPoint" />
          </mxGeometry>
        </mxCell>
        <mxCell id="eaBGvAUoTCd1ScwMtzOl-95" value="" style="edgeStyle=none;rounded=0;orthogonalLoop=1;jettySize=auto;html=1;" edge="1" parent="1" source="eaBGvAUoTCd1ScwMtzOl-80">
          <mxGeometry relative="1" as="geometry">
            <mxPoint x="1010" y="-4015" as="targetPoint" />
          </mxGeometry>
        </mxCell>
        <mxCell id="eaBGvAUoTCd1ScwMtzOl-80" value="Nem" style="whiteSpace=wrap;html=1;" vertex="1" parent="1">
          <mxGeometry x="1057.5" y="-4120" width="120" height="60" as="geometry" />
        </mxCell>
        <mxCell id="eaBGvAUoTCd1ScwMtzOl-81" value="" style="edgeStyle=orthogonalEdgeStyle;rounded=0;orthogonalLoop=1;jettySize=auto;html=1;" edge="1" parent="1" source="eaBGvAUoTCd1ScwMtzOl-83" target="eaBGvAUoTCd1ScwMtzOl-86">
          <mxGeometry relative="1" as="geometry" />
        </mxCell>
        <mxCell id="eaBGvAUoTCd1ScwMtzOl-82" value="" style="edgeStyle=orthogonalEdgeStyle;rounded=0;orthogonalLoop=1;jettySize=auto;html=1;" edge="1" parent="1" source="eaBGvAUoTCd1ScwMtzOl-83" target="eaBGvAUoTCd1ScwMtzOl-87">
          <mxGeometry relative="1" as="geometry" />
        </mxCell>
        <mxCell id="eaBGvAUoTCd1ScwMtzOl-83" value="Igen" style="whiteSpace=wrap;html=1;rounded=0;" vertex="1" parent="1">
          <mxGeometry x="682.5" y="-4190" width="120" height="60" as="geometry" />
        </mxCell>
        <mxCell id="eaBGvAUoTCd1ScwMtzOl-85" value="" style="edgeStyle=orthogonalEdgeStyle;rounded=0;orthogonalLoop=1;jettySize=auto;html=1;entryX=0;entryY=0.25;entryDx=0;entryDy=0;" edge="1" parent="1" source="eaBGvAUoTCd1ScwMtzOl-86" target="eaBGvAUoTCd1ScwMtzOl-93">
          <mxGeometry relative="1" as="geometry">
            <mxPoint x="822.5" y="-3980" as="targetPoint" />
          </mxGeometry>
        </mxCell>
        <mxCell id="eaBGvAUoTCd1ScwMtzOl-86" value="Felvetted a százast(+100 Ft)" style="whiteSpace=wrap;html=1;rounded=0;" vertex="1" parent="1">
          <mxGeometry x="582.5" y="-4010" width="120" height="60" as="geometry" />
        </mxCell>
        <mxCell id="eaBGvAUoTCd1ScwMtzOl-87" value="Lakatos Ricárdó&lt;br&gt;mögötted terem, megver(-500 Ft)" style="whiteSpace=wrap;html=1;rounded=0;" vertex="1" parent="1">
          <mxGeometry x="482.5" y="-4190" width="120" height="60" as="geometry" />
        </mxCell>
        <mxCell id="eaBGvAUoTCd1ScwMtzOl-92" value="" style="edgeStyle=orthogonalEdgeStyle;rounded=0;orthogonalLoop=1;jettySize=auto;html=1;" edge="1" parent="1" target="eaBGvAUoTCd1ScwMtzOl-87">
          <mxGeometry relative="1" as="geometry">
            <mxPoint x="542.5" y="-4210" as="sourcePoint" />
          </mxGeometry>
        </mxCell>
        <mxCell id="eaBGvAUoTCd1ScwMtzOl-93" value="Tovább mentél" style="rounded=0;whiteSpace=wrap;html=1;" vertex="1" parent="1">
          <mxGeometry x="890" y="-4040" width="120" height="50" as="geometry" />
        </mxCell>
        <mxCell id="eaBGvAUoTCd1ScwMtzOl-101" value="" style="edgeStyle=orthogonalEdgeStyle;rounded=0;orthogonalLoop=1;jettySize=auto;html=1;" edge="1" parent="1" source="eaBGvAUoTCd1ScwMtzOl-102" target="eaBGvAUoTCd1ScwMtzOl-109">
          <mxGeometry relative="1" as="geometry">
            <Array as="points">
              <mxPoint x="2200" y="-4130" />
              <mxPoint x="2200" y="-4130" />
            </Array>
          </mxGeometry>
        </mxCell>
        <mxCell id="eaBGvAUoTCd1ScwMtzOl-132" value="" style="edgeStyle=none;rounded=0;orthogonalLoop=1;jettySize=auto;html=1;entryX=1;entryY=0.75;entryDx=0;entryDy=0;" edge="1" parent="1" source="eaBGvAUoTCd1ScwMtzOl-102" target="eI0seqku75HwyaSV5OBJ-10">
          <mxGeometry relative="1" as="geometry">
            <mxPoint x="1740" y="-4215" as="targetPoint" />
          </mxGeometry>
        </mxCell>
        <mxCell id="eaBGvAUoTCd1ScwMtzOl-102" value="Sikeresen kiértél az&amp;nbsp; aluljáróból, átkeltél a fehér-fekete felfestésen. Ezután a Városháza mentén meglátsz egy hobót, aki kiszúrt téged, kezében egy &quot;Kucci&quot; parfümmel." style="whiteSpace=wrap;html=1;rounded=0;" vertex="1" parent="1">
          <mxGeometry x="2010" y="-4280" width="400" height="130" as="geometry" />
        </mxCell>
        <mxCell id="eaBGvAUoTCd1ScwMtzOl-103" value="" style="edgeStyle=orthogonalEdgeStyle;rounded=0;orthogonalLoop=1;jettySize=auto;html=1;" edge="1" parent="1" source="eaBGvAUoTCd1ScwMtzOl-109" target="eaBGvAUoTCd1ScwMtzOl-111">
          <mxGeometry relative="1" as="geometry" />
        </mxCell>
        <mxCell id="eaBGvAUoTCd1ScwMtzOl-104" value="" style="edgeStyle=orthogonalEdgeStyle;rounded=0;orthogonalLoop=1;jettySize=auto;html=1;" edge="1" parent="1" source="eaBGvAUoTCd1ScwMtzOl-109" target="eaBGvAUoTCd1ScwMtzOl-113">
          <mxGeometry relative="1" as="geometry" />
        </mxCell>
        <mxCell id="eaBGvAUoTCd1ScwMtzOl-105" value="" style="edgeStyle=orthogonalEdgeStyle;rounded=0;orthogonalLoop=1;jettySize=auto;html=1;" edge="1" parent="1" source="eaBGvAUoTCd1ScwMtzOl-109" target="eaBGvAUoTCd1ScwMtzOl-113">
          <mxGeometry relative="1" as="geometry" />
        </mxCell>
        <mxCell id="eaBGvAUoTCd1ScwMtzOl-106" value="" style="edgeStyle=orthogonalEdgeStyle;rounded=0;orthogonalLoop=1;jettySize=auto;html=1;" edge="1" parent="1" source="eaBGvAUoTCd1ScwMtzOl-109" target="eaBGvAUoTCd1ScwMtzOl-113">
          <mxGeometry relative="1" as="geometry" />
        </mxCell>
        <mxCell id="eaBGvAUoTCd1ScwMtzOl-107" value="" style="edgeStyle=orthogonalEdgeStyle;rounded=0;orthogonalLoop=1;jettySize=auto;html=1;" edge="1" parent="1" source="eaBGvAUoTCd1ScwMtzOl-109" target="eaBGvAUoTCd1ScwMtzOl-115">
          <mxGeometry relative="1" as="geometry" />
        </mxCell>
        <mxCell id="eaBGvAUoTCd1ScwMtzOl-108" value="" style="edgeStyle=orthogonalEdgeStyle;rounded=0;orthogonalLoop=1;jettySize=auto;html=1;" edge="1" parent="1" source="eaBGvAUoTCd1ScwMtzOl-109" target="eaBGvAUoTCd1ScwMtzOl-117">
          <mxGeometry relative="1" as="geometry" />
        </mxCell>
        <mxCell id="eaBGvAUoTCd1ScwMtzOl-109" value="&quot;Szép napot honfitárs, szia uram, parfüm érdekel?&quot;" style="whiteSpace=wrap;html=1;rounded=0;" vertex="1" parent="1">
          <mxGeometry x="2140" y="-4095" width="120" height="60" as="geometry" />
        </mxCell>
        <mxCell id="eaBGvAUoTCd1ScwMtzOl-110" value="" style="edgeStyle=orthogonalEdgeStyle;rounded=0;orthogonalLoop=1;jettySize=auto;html=1;" edge="1" parent="1" source="eaBGvAUoTCd1ScwMtzOl-111" target="eaBGvAUoTCd1ScwMtzOl-119">
          <mxGeometry relative="1" as="geometry" />
        </mxCell>
        <mxCell id="eaBGvAUoTCd1ScwMtzOl-111" value="&quot;Menjen innen maga hobó!!!&quot;" style="whiteSpace=wrap;html=1;rounded=0;" vertex="1" parent="1">
          <mxGeometry x="1860" y="-3950" width="120" height="70" as="geometry" />
        </mxCell>
        <mxCell id="eaBGvAUoTCd1ScwMtzOl-112" value="" style="edgeStyle=orthogonalEdgeStyle;rounded=0;orthogonalLoop=1;jettySize=auto;html=1;" edge="1" parent="1" source="eaBGvAUoTCd1ScwMtzOl-113" target="eaBGvAUoTCd1ScwMtzOl-123">
          <mxGeometry relative="1" as="geometry" />
        </mxCell>
        <mxCell id="eaBGvAUoTCd1ScwMtzOl-113" value="&quot;Sajnálom uram de vágtázok hazafele&quot;" style="whiteSpace=wrap;html=1;rounded=0;" vertex="1" parent="1">
          <mxGeometry x="2080" y="-3950" width="120" height="60" as="geometry" />
        </mxCell>
        <mxCell id="eaBGvAUoTCd1ScwMtzOl-114" value="" style="edgeStyle=orthogonalEdgeStyle;rounded=0;orthogonalLoop=1;jettySize=auto;html=1;" edge="1" parent="1" source="eaBGvAUoTCd1ScwMtzOl-115" target="eaBGvAUoTCd1ScwMtzOl-125">
          <mxGeometry relative="1" as="geometry" />
        </mxCell>
        <mxCell id="eaBGvAUoTCd1ScwMtzOl-115" value="&quot;Add ide a suskád, te hobó!&quot;" style="whiteSpace=wrap;html=1;rounded=0;" vertex="1" parent="1">
          <mxGeometry x="2205" y="-3950" width="120" height="60" as="geometry" />
        </mxCell>
        <mxCell id="eaBGvAUoTCd1ScwMtzOl-116" value="" style="edgeStyle=orthogonalEdgeStyle;rounded=0;orthogonalLoop=1;jettySize=auto;html=1;" edge="1" parent="1" source="eaBGvAUoTCd1ScwMtzOl-117" target="eaBGvAUoTCd1ScwMtzOl-121">
          <mxGeometry relative="1" as="geometry" />
        </mxCell>
        <mxCell id="eaBGvAUoTCd1ScwMtzOl-117" value="&quot;Érdekelne&quot;" style="whiteSpace=wrap;html=1;rounded=0;" vertex="1" parent="1">
          <mxGeometry x="2400" y="-3950" width="120" height="60" as="geometry" />
        </mxCell>
        <mxCell id="eaBGvAUoTCd1ScwMtzOl-118" value="" style="edgeStyle=orthogonalEdgeStyle;rounded=0;orthogonalLoop=1;jettySize=auto;html=1;" edge="1" parent="1" source="eaBGvAUoTCd1ScwMtzOl-119" target="eaBGvAUoTCd1ScwMtzOl-127">
          <mxGeometry relative="1" as="geometry" />
        </mxCell>
        <mxCell id="eaBGvAUoTCd1ScwMtzOl-119" value="A bácsi mérges lett, homloklebenyen rúgott és elvette az összes pénzed!" style="whiteSpace=wrap;html=1;rounded=0;" vertex="1" parent="1">
          <mxGeometry x="1860" y="-3690" width="120" height="60" as="geometry" />
        </mxCell>
        <mxCell id="eaBGvAUoTCd1ScwMtzOl-120" value="" style="edgeStyle=orthogonalEdgeStyle;rounded=0;orthogonalLoop=1;jettySize=auto;html=1;" edge="1" parent="1" source="eaBGvAUoTCd1ScwMtzOl-121" target="eaBGvAUoTCd1ScwMtzOl-126">
          <mxGeometry relative="1" as="geometry" />
        </mxCell>
        <mxCell id="eaBGvAUoTCd1ScwMtzOl-121" value="Nem volt nálad elég pénz, ezért nyakszirten vágott és összecsuklottál, mint egy napozóágy. Ezután lenyúlta a maradék pénzed." style="whiteSpace=wrap;html=1;rounded=0;" vertex="1" parent="1">
          <mxGeometry x="2400" y="-3690" width="300" height="60" as="geometry" />
        </mxCell>
        <mxCell id="eaBGvAUoTCd1ScwMtzOl-122" value="" style="edgeStyle=orthogonalEdgeStyle;rounded=0;orthogonalLoop=1;jettySize=auto;html=1;" edge="1" parent="1" source="eaBGvAUoTCd1ScwMtzOl-123" target="eaBGvAUoTCd1ScwMtzOl-130">
          <mxGeometry relative="1" as="geometry" />
        </mxCell>
        <mxCell id="eaBGvAUoTCd1ScwMtzOl-123" value="Morcos fejet vágott, de elfogadta és továbbállt" style="whiteSpace=wrap;html=1;rounded=0;" vertex="1" parent="1">
          <mxGeometry x="2080" y="-3810" width="120" height="60" as="geometry" />
        </mxCell>
        <mxCell id="eaBGvAUoTCd1ScwMtzOl-124" value="" style="edgeStyle=orthogonalEdgeStyle;rounded=0;orthogonalLoop=1;jettySize=auto;html=1;" edge="1" parent="1" source="eaBGvAUoTCd1ScwMtzOl-125" target="eaBGvAUoTCd1ScwMtzOl-129">
          <mxGeometry relative="1" as="geometry" />
        </mxCell>
        <mxCell id="eaBGvAUoTCd1ScwMtzOl-125" value="&quot;Itt egy ötszázas csak ne kerülj többet a szemem elé te csúf makákó!&quot;" style="whiteSpace=wrap;html=1;rounded=0;" vertex="1" parent="1">
          <mxGeometry x="2205" y="-3810" width="120" height="60" as="geometry" />
        </mxCell>
        <mxCell id="eaBGvAUoTCd1ScwMtzOl-126" value="Vesztettél!" style="whiteSpace=wrap;html=1;rounded=0;" vertex="1" parent="1">
          <mxGeometry x="2490" y="-3550" width="120" height="60" as="geometry" />
        </mxCell>
        <mxCell id="eaBGvAUoTCd1ScwMtzOl-127" value="Vesztettél!" style="whiteSpace=wrap;html=1;rounded=0;" vertex="1" parent="1">
          <mxGeometry x="1860" y="-3550" width="120" height="60" as="geometry" />
        </mxCell>
        <mxCell id="eaBGvAUoTCd1ScwMtzOl-128" value="" style="edgeStyle=orthogonalEdgeStyle;rounded=0;orthogonalLoop=1;jettySize=auto;html=1;" edge="1" parent="1" source="eaBGvAUoTCd1ScwMtzOl-129">
          <mxGeometry relative="1" as="geometry">
            <mxPoint x="2220" y="-3390" as="targetPoint" />
          </mxGeometry>
        </mxCell>
        <mxCell id="eaBGvAUoTCd1ScwMtzOl-129" value="(+500Ft)" style="whiteSpace=wrap;html=1;rounded=0;" vertex="1" parent="1">
          <mxGeometry x="2205" y="-3670" width="120" height="60" as="geometry" />
        </mxCell>
        <mxCell id="eaBGvAUoTCd1ScwMtzOl-130" value="Ezután átkeltél mégegy zebrán, eddig nem ért veszély forrás eme görönyös úton!&lt;br&gt;Megérkeztél a Baross út elejére." style="whiteSpace=wrap;html=1;rounded=0;" vertex="1" parent="1">
          <mxGeometry x="1990" y="-3390" width="460" height="60" as="geometry" />
        </mxCell>
        <mxCell id="eaBGvAUoTCd1ScwMtzOl-135" value="Továbbmentél" style="rounded=0;whiteSpace=wrap;html=1;" vertex="1" parent="1">
          <mxGeometry x="320" y="-3110" width="120" height="60" as="geometry" />
        </mxCell>
        <mxCell id="eaBGvAUoTCd1ScwMtzOl-138" value="Továbbmentél" style="whiteSpace=wrap;html=1;rounded=0;" vertex="1" parent="1">
          <mxGeometry x="2370" y="-4400" width="120" height="60" as="geometry" />
        </mxCell>
      </root>
    </mxGraphModel>
  </diagram>
</mxfile>
